# xmcd
#
# Track frame offsets:
#	150
#	26697
#	46264
#	64689
#	85162
#	107878
#	128204
#	148084
#	165826
#	187803
#	220522
#
# Disc length: 3270 seconds
#
# Revision: 0
# Processed by: cddbd v1.5.2PL0 Copyright (c) Steve Scherf et al.
# Submitted via: EZCDAudioConverter 1.2.5.1
#
DISCID=8c0cc40b
DTITLE=John Mayall - Tough
DYEAR=2009
DGENRE=Blues
TTITLE0=Nothing to Do with Love
TTITLE1=Just What You're Looking for
TTITLE2=Playing with a Losing Hand
TTITLE3=An Eye for an Eye
TTITLE4=How Far Down
TTITLE5=Train to My Heart
TTITLE6=Slow Train to Nowhere
TTITLE7=Number's Down
TTITLE8=That Good Old Rockin' Blues
TTITLE9=Tough Times Ahead
TTITLE10=The Sum of Something
EXTD=
EXTT0=
EXTT1=
EXTT2=
EXTT3=
EXTT4=
EXTT5=
EXTT6=
EXTT7=
EXTT8=
EXTT9=
EXTT10=
PLAYORDER=
